<svg id="visual" viewBox="0 0 900 450" width="900" height="450" xmlns="http://www.w3.org/2000/svg" xmlns:xlink="http://www.w3.org/1999/xlink" version="1.1"><path d="M0 287L21.5 294.8C43 302.7 86 318.3 128.8 319C171.7 319.7 214.3 305.3 257.2 295.8C300 286.3 343 281.7 385.8 288.3C428.7 295 471.3 313 514.2 317C557 321 600 311 642.8 301.5C685.7 292 728.3 283 771.2 280.7C814 278.3 857 282.7 878.5 284.8L900 287L900 451L878.5 451C857 451 814 451 771.2 451C728.3 451 685.7 451 642.8 451C600 451 557 451 514.2 451C471.3 451 428.7 451 385.8 451C343 451 300 451 257.2 451C214.3 451 171.7 451 128.8 451C86 451 43 451 21.5 451L0 451Z" fill="#a8d0e6"></path><path d="M0 324L21.5 329.2C43 334.3 86 344.7 128.8 349.2C171.7 353.7 214.3 352.3 257.2 349.7C300 347 343 343 385.8 341.8C428.7 340.7 471.3 342.3 514.2 340.2C557 338 600 332 642.8 326.2C685.7 320.3 728.3 314.7 771.2 309.8C814 305 857 301 878.5 299L900 297L900 451L878.5 451C857 451 814 451 771.2 451C728.3 451 685.7 451 642.8 451C600 451 557 451 514.2 451C471.3 451 428.7 451 385.8 451C343 451 300 451 257.2 451C214.3 451 171.7 451 128.8 451C86 451 43 451 21.5 451L0 451Z" fill="#a7bef0"></path><path d="M0 352L21.5 353.3C43 354.7 86 357.3 128.8 359.3C171.7 361.3 214.3 362.7 257.2 357.2C300 351.7 343 339.3 385.8 337.2C428.7 335 471.3 343 514.2 348.2C557 353.3 600 355.7 642.8 359.8C685.7 364 728.3 370 771.2 368.5C814 367 857 358 878.5 353.5L900 349L900 451L878.5 451C857 451 814 451 771.2 451C728.3 451 685.7 451 642.8 451C600 451 557 451 514.2 451C471.3 451 428.7 451 385.8 451C343 451 300 451 257.2 451C214.3 451 171.7 451 128.8 451C86 451 43 451 21.5 451L0 451Z" fill="#caa2e4"></path><path d="M0 370L21.5 375.5C43 381 86 392 128.8 397.5C171.7 403 214.3 403 257.2 398C300 393 343 383 385.8 379.3C428.7 375.7 471.3 378.3 514.2 382.3C557 386.3 600 391.7 642.8 389.7C685.7 387.7 728.3 378.3 771.2 373C814 367.7 857 366.3 878.5 365.7L900 365L900 451L878.5 451C857 451 814 451 771.2 451C728.3 451 685.7 451 642.8 451C600 451 557 451 514.2 451C471.3 451 428.7 451 385.8 451C343 451 300 451 257.2 451C214.3 451 171.7 451 128.8 451C86 451 43 451 21.5 451L0 451Z" fill="#ef81b5"></path><path d="M0 395L21.5 396.8C43 398.7 86 402.3 128.8 403.8C171.7 405.3 214.3 404.7 257.2 403.5C300 402.3 343 400.7 385.8 399.5C428.7 398.3 471.3 397.7 514.2 400.8C557 404 600 411 642.8 416.5C685.7 422 728.3 426 771.2 426.8C814 427.7 857 425.3 878.5 424.2L900 423L900 451L878.5 451C857 451 814 451 771.2 451C728.3 451 685.7 451 642.8 451C600 451 557 451 514.2 451C471.3 451 428.7 451 385.8 451C343 451 300 451 257.2 451C214.3 451 171.7 451 128.8 451C86 451 43 451 21.5 451L0 451Z" fill="#f76c6c"></path></svg>