<svg id="visual" viewBox="0 0 900 450" width="900" height="450" xmlns="http://www.w3.org/2000/svg" xmlns:xlink="http://www.w3.org/1999/xlink" version="1.1"><path d="M0 269L21.5 267.8C43 266.7 86 264.3 128.8 263.8C171.7 263.3 214.3 264.7 257.2 272.5C300 280.3 343 294.7 385.8 300.2C428.7 305.7 471.3 302.3 514.2 303.3C557 304.3 600 309.7 642.8 311.5C685.7 313.3 728.3 311.7 771.2 303.5C814 295.3 857 280.7 878.5 273.3L900 266L900 451L878.5 451C857 451 814 451 771.2 451C728.3 451 685.7 451 642.8 451C600 451 557 451 514.2 451C471.3 451 428.7 451 385.8 451C343 451 300 451 257.2 451C214.3 451 171.7 451 128.8 451C86 451 43 451 21.5 451L0 451Z" fill="#a8d0e6"></path><path d="M0 298L21.5 301.5C43 305 86 312 128.8 317.8C171.7 323.7 214.3 328.3 257.2 333C300 337.7 343 342.3 385.8 336.7C428.7 331 471.3 315 514.2 310.5C557 306 600 313 642.8 319.3C685.7 325.7 728.3 331.3 771.2 331.2C814 331 857 325 878.5 322L900 319L900 451L878.5 451C857 451 814 451 771.2 451C728.3 451 685.7 451 642.8 451C600 451 557 451 514.2 451C471.3 451 428.7 451 385.8 451C343 451 300 451 257.2 451C214.3 451 171.7 451 128.8 451C86 451 43 451 21.5 451L0 451Z" fill="#a7bef0"></path><path d="M0 359L21.5 359.7C43 360.3 86 361.7 128.8 363.3C171.7 365 214.3 367 257.2 361.7C300 356.3 343 343.7 385.8 344.7C428.7 345.7 471.3 360.3 514.2 368.2C557 376 600 377 642.8 373.5C685.7 370 728.3 362 771.2 353.8C814 345.7 857 337.3 878.5 333.2L900 329L900 451L878.5 451C857 451 814 451 771.2 451C728.3 451 685.7 451 642.8 451C600 451 557 451 514.2 451C471.3 451 428.7 451 385.8 451C343 451 300 451 257.2 451C214.3 451 171.7 451 128.8 451C86 451 43 451 21.5 451L0 451Z" fill="#caa2e4"></path><path d="M0 397L21.5 395.5C43 394 86 391 128.8 392.5C171.7 394 214.3 400 257.2 396C300 392 343 378 385.8 372.3C428.7 366.7 471.3 369.3 514.2 371.2C557 373 600 374 642.8 378.8C685.7 383.7 728.3 392.3 771.2 391.2C814 390 857 379 878.5 373.5L900 368L900 451L878.5 451C857 451 814 451 771.2 451C728.3 451 685.7 451 642.8 451C600 451 557 451 514.2 451C471.3 451 428.7 451 385.8 451C343 451 300 451 257.2 451C214.3 451 171.7 451 128.8 451C86 451 43 451 21.5 451L0 451Z" fill="#ef81b5"></path><path d="M0 412L21.5 411.8C43 411.7 86 411.3 128.8 410.7C171.7 410 214.3 409 257.2 411.2C300 413.3 343 418.7 385.8 417.3C428.7 416 471.3 408 514.2 403.5C557 399 600 398 642.8 402C685.7 406 728.3 415 771.2 418.5C814 422 857 420 878.5 419L900 418L900 451L878.5 451C857 451 814 451 771.2 451C728.3 451 685.7 451 642.8 451C600 451 557 451 514.2 451C471.3 451 428.7 451 385.8 451C343 451 300 451 257.2 451C214.3 451 171.7 451 128.8 451C86 451 43 451 21.5 451L0 451Z" fill="#f76c6c"></path></svg>